<svg width="328" height="47" viewBox="0 0 328 47" fill="none" xmlns="http://www.w3.org/2000/svg">
<path d="M9.33008 9.31641V37.5H17.6504C21.9082 37.5 24.877 35.4004 26.5566 31.2012C27.4746 28.8965 27.9336 26.1523 27.9336 22.9688C27.9336 18.5742 27.2402 15.2051 25.8535 12.8613C24.4863 10.498 21.752 9.31641 17.6504 9.31641H9.33008ZM19.1738 1.81641C21.8496 1.85547 24.0762 2.16797 25.8535 2.75391C28.8809 3.75 31.332 5.57617 33.207 8.23242C34.7109 10.3809 35.7363 12.7051 36.2832 15.2051C36.8301 17.7051 37.1035 20.0879 37.1035 22.3535C37.1035 28.0957 35.9512 32.959 33.6465 36.9434C30.5215 42.3145 25.6973 45 19.1738 45H0.570312V1.81641H19.1738ZM43.7832 1.81641H53.2461L70.4434 31.9629V1.81641H78.8516V45H69.8281L52.1914 14.3262V45H43.7832V1.81641ZM85.4141 23.7598C85.4141 16.2207 87.4355 10.4102 91.4785 6.32812C94.9941 2.77344 99.4668 0.996094 104.896 0.996094C112.162 0.996094 117.475 3.37891 120.834 8.14453C122.689 10.8203 123.686 13.5059 123.822 16.2012H114.799C114.213 14.1309 113.461 12.5684 112.543 11.5137C110.902 9.63867 108.471 8.70117 105.248 8.70117C101.967 8.70117 99.3789 10.0293 97.4844 12.6855C95.5898 15.3223 94.6426 19.0625 94.6426 23.9062C94.6426 28.75 95.6387 32.3828 97.6309 34.8047C99.6426 37.207 102.191 38.4082 105.277 38.4082C108.441 38.4082 110.854 37.373 112.514 35.3027C113.432 34.1895 114.193 32.5195 114.799 30.293H123.734C122.953 35 120.951 38.8281 117.729 41.7773C114.525 44.7266 110.414 46.2012 105.395 46.2012C99.1836 46.2012 94.3008 44.209 90.7461 40.2246C87.1914 36.2207 85.4141 30.7324 85.4141 23.7598ZM145.473 23.7598C145.473 16.2207 147.494 10.4102 151.537 6.32812C155.053 2.77344 159.525 0.996094 164.955 0.996094C172.221 0.996094 177.533 3.37891 180.893 8.14453C182.748 10.8203 183.744 13.5059 183.881 16.2012H174.857C174.271 14.1309 173.52 12.5684 172.602 11.5137C170.961 9.63867 168.529 8.70117 165.307 8.70117C162.025 8.70117 159.438 10.0293 157.543 12.6855C155.648 15.3223 154.701 19.0625 154.701 23.9062C154.701 28.75 155.697 32.3828 157.689 34.8047C159.701 37.207 162.25 38.4082 165.336 38.4082C168.5 38.4082 170.912 37.373 172.572 35.3027C173.49 34.1895 174.252 32.5195 174.857 30.293H183.793C183.012 35 181.01 38.8281 177.787 41.7773C174.584 44.7266 170.473 46.2012 165.453 46.2012C159.242 46.2012 154.359 44.209 150.805 40.2246C147.25 36.2207 145.473 30.7324 145.473 23.7598ZM204.359 39.1113C206.801 39.1113 208.676 38.2422 209.984 36.5039C211.293 34.7656 211.947 32.2949 211.947 29.0918C211.947 25.8887 211.293 23.4277 209.984 21.709C208.676 19.9707 206.801 19.1016 204.359 19.1016C201.918 19.1016 200.033 19.9707 198.705 21.709C197.396 23.4277 196.742 25.8887 196.742 29.0918C196.742 32.2949 197.396 34.7656 198.705 36.5039C200.033 38.2422 201.918 39.1113 204.359 39.1113ZM220.707 29.0918C220.707 33.7793 219.359 37.793 216.664 41.1328C213.969 44.4531 209.877 46.1133 204.389 46.1133C198.9 46.1133 194.809 44.4531 192.113 41.1328C189.418 37.793 188.07 33.7793 188.07 29.0918C188.07 24.4824 189.418 20.4883 192.113 17.1094C194.809 13.7305 198.9 12.041 204.389 12.041C209.877 12.041 213.969 13.7305 216.664 17.1094C219.359 20.4883 220.707 24.4824 220.707 29.0918ZM238.49 1.37695C239.018 1.37695 239.496 1.39648 239.926 1.43555C240.355 1.45508 240.941 1.49414 241.684 1.55273V8.34961C241.215 8.29102 240.424 8.25195 239.311 8.23242C238.217 8.19336 237.455 8.4375 237.025 8.96484C236.615 9.47266 236.41 10.0391 236.41 10.6641C236.41 11.2891 236.41 12.1875 236.41 13.3594H241.889V19.248H236.41V45H228.09V19.248H223.432V13.3594H228.002V11.3086C228.002 7.89062 228.578 5.53711 229.73 4.24805C230.941 2.33398 233.861 1.37695 238.49 1.37695ZM258.471 1.37695C258.998 1.37695 259.477 1.39648 259.906 1.43555C260.336 1.45508 260.922 1.49414 261.664 1.55273V8.34961C261.195 8.29102 260.404 8.25195 259.291 8.23242C258.197 8.19336 257.436 8.4375 257.006 8.96484C256.596 9.47266 256.391 10.0391 256.391 10.6641C256.391 11.2891 256.391 12.1875 256.391 13.3594H261.869V19.248H256.391V45H248.07V19.248H243.412V13.3594H247.982V11.3086C247.982 7.89062 248.559 5.53711 249.711 4.24805C250.922 2.33398 253.842 1.37695 258.471 1.37695ZM279.271 19.1016C277.338 19.1016 275.834 19.707 274.76 20.918C273.705 22.1289 273.041 23.7695 272.768 25.8398H285.746C285.609 23.6328 284.936 21.9629 283.725 20.8301C282.533 19.6777 281.049 19.1016 279.271 19.1016ZM279.271 12.2168C281.928 12.2168 284.32 12.7148 286.449 13.7109C288.578 14.707 290.336 16.2793 291.723 18.4277C292.973 20.3223 293.783 22.5195 294.154 25.0195C294.369 26.4844 294.457 28.5938 294.418 31.3477H272.562C272.68 34.5508 273.686 36.7969 275.58 38.0859C276.732 38.8867 278.119 39.2871 279.74 39.2871C281.459 39.2871 282.855 38.7988 283.93 37.8223C284.516 37.2949 285.033 36.5625 285.482 35.625H294.008C293.793 37.5195 292.807 39.4434 291.049 41.3965C288.314 44.502 284.486 46.0547 279.564 46.0547C275.502 46.0547 271.918 44.7461 268.812 42.1289C265.707 39.5117 264.154 35.2539 264.154 29.3555C264.154 23.8281 265.551 19.5898 268.344 16.6406C271.156 13.6914 274.799 12.2168 279.271 12.2168ZM312.67 19.1016C310.736 19.1016 309.232 19.707 308.158 20.918C307.104 22.1289 306.439 23.7695 306.166 25.8398H319.145C319.008 23.6328 318.334 21.9629 317.123 20.8301C315.932 19.6777 314.447 19.1016 312.67 19.1016ZM312.67 12.2168C315.326 12.2168 317.719 12.7148 319.848 13.7109C321.977 14.707 323.734 16.2793 325.121 18.4277C326.371 20.3223 327.182 22.5195 327.553 25.0195C327.768 26.4844 327.855 28.5938 327.816 31.3477H305.961C306.078 34.5508 307.084 36.7969 308.979 38.0859C310.131 38.8867 311.518 39.2871 313.139 39.2871C314.857 39.2871 316.254 38.7988 317.328 37.8223C317.914 37.2949 318.432 36.5625 318.881 35.625H327.406C327.191 37.5195 326.205 39.4434 324.447 41.3965C321.713 44.502 317.885 46.0547 312.963 46.0547C308.9 46.0547 305.316 44.7461 302.211 42.1289C299.105 39.5117 297.553 35.2539 297.553 29.3555C297.553 23.8281 298.949 19.5898 301.742 16.6406C304.555 13.6914 308.197 12.2168 312.67 12.2168Z" fill="white"/>
</svg>
